<?xml version="1.0" encoding="utf-8"?>
<!-- Generator: Adobe Illustrator 22.0.1, SVG Export Plug-In . SVG Version: 6.00 Build 0)  -->
<svg version="1.1" id="Layer_1" xmlns="http://www.w3.org/2000/svg" xmlns:xlink="http://www.w3.org/1999/xlink" x="0px" y="0px"
	 viewBox="0 0 353.3 370.3" style="enable-background:new 0 0 353.3 370.3;" xml:space="preserve">
<style type="text/css">
	.st0{fill:#010101;}
	.st1{fill:#FFFFFF;}
</style>
<g>
	<polygon class="st0" points="353.2,1.8 212.3,137 196.6,152.1 167.5,180 151.9,195 127.3,218.6 111.6,233.6 82.6,261.6 66.9,276.6 
		0.2,340.7 0.2,1.4 	"/>
	<g>
		<polygon class="st0" points="212.3,137 212.3,263.8 196.6,263.8 196.6,152.1 		"/>
	</g>
	<g>
		<polygon class="st1" points="212.3,22.3 212.3,137 196.6,152.1 196.6,22.3 		"/>
	</g>
	<g>
		<polygon class="st0" points="167.5,180 167.5,256.1 151.9,256.1 151.9,195 		"/>
	</g>
	<g>
		<polygon class="st1" points="167.5,115.2 167.5,180 151.9,195 151.9,115.2 		"/>
	</g>
	<g>
		<polygon class="st0" points="127.3,218.6 127.3,368.9 111.6,368.9 111.6,233.6 		"/>
	</g>
	<g>
		<polygon class="st1" points="127.3,84.9 127.3,218.6 111.6,233.6 111.6,84.9 		"/>
	</g>
	<g>
		<polygon class="st0" points="82.6,261.6 82.6,341.4 66.9,341.4 66.9,276.6 		"/>
	</g>
	<g>
		<polygon class="st1" points="82.6,187.1 82.6,261.6 66.9,276.6 66.9,187.1 		"/>
	</g>
</g>
</svg>
