<?xml version="1.0" encoding="utf-8"?>
<!-- Generator: Adobe Illustrator 22.0.1, SVG Export Plug-In . SVG Version: 6.00 Build 0)  -->
<svg version="1.1" id="Layer_1" xmlns="http://www.w3.org/2000/svg" xmlns:xlink="http://www.w3.org/1999/xlink" x="0px" y="0px"
	 viewBox="0 0 177.9 96.1" style="enable-background:new 0 0 177.9 96.1;" xml:space="preserve">
<style type="text/css">
	.st0{fill:#010101;}
</style>
<g>
	<path class="st0" d="M1.7,30.3c-0.6-0.6-0.9-1.3-0.9-2.1c0-0.8,0.3-1.5,0.9-2s1.3-0.9,2.2-0.9c0.9,0,1.6,0.3,2.2,0.8
		c0.6,0.6,0.9,1.2,0.9,2c0,0.9-0.3,1.6-0.9,2.2s-1.3,0.9-2.2,0.9C3,31.1,2.3,30.8,1.7,30.3z M1.8,37.8h4.1V97H1.8V37.8z"/>
	<path class="st0" d="M42.3,41c2.3,2.2,3.4,5.5,3.4,9.8V97h-4.1V51.1c0-3.2-0.8-5.6-2.4-7.3c-1.6-1.7-3.9-2.5-6.8-2.5
		c-3.3,0-5.9,1-7.8,2.9c-1.9,2-2.9,4.7-2.9,8.1V97h-4.1V37.8h4v5.7c1.1-1.9,2.7-3.3,4.7-4.3c2-1,4.3-1.5,7-1.5
		C36.9,37.6,40,38.7,42.3,41z"/>
	<path class="st0" d="M81.7,41c2.3,2.2,3.4,5.5,3.4,9.8V69H81V51.1c0-3.2-0.8-5.6-2.4-7.3c-1.6-1.7-3.9-2.5-6.8-2.5
		c-3.3,0-5.9,1-7.8,2.9c-1.9,2-2.9,4.7-2.9,8.1V69h-4.1V0h4.1v43.2c1.1-1.8,2.7-3.2,4.7-4.1c2-1,4.3-1.5,6.8-1.5
		C76.4,37.6,79.5,38.7,81.7,41z"/>
	<path class="st0" d="M101.1,66.8c-2.4-1.3-4.2-3.2-5.6-5.6c-1.4-2.4-2-5.1-2-8c0-3,0.7-5.7,2-8c1.4-2.4,3.2-4.2,5.6-5.5
		c2.4-1.3,5-2,8-2c3,0,5.6,0.7,8,2c2.4,1.3,4.2,3.2,5.6,5.5c1.3,2.4,2,5.1,2,8c0,3-0.7,5.7-2,8c-1.3,2.4-3.2,4.2-5.6,5.6
		c-2.4,1.3-5,2-8,2C106.1,68.8,103.4,68.1,101.1,66.8z M114.9,63.6c1.7-1,3.1-2.4,4.1-4.2c1-1.8,1.5-3.9,1.5-6.2s-0.5-4.4-1.5-6.2
		c-1-1.8-2.3-3.2-4.1-4.2s-3.7-1.5-5.9-1.5c-2.2,0-4.1,0.5-5.9,1.5c-1.7,1-3.1,2.4-4.1,4.2c-1,1.8-1.5,3.9-1.5,6.2s0.5,4.4,1.5,6.2
		c1,1.8,2.4,3.2,4.1,4.2c1.7,1,3.7,1.5,5.9,1.5C111.2,65.1,113.2,64.6,114.9,63.6z"/>
	<path class="st0" d="M133.1,0h4.1v69h-4.1V0z"/>
	<path class="st0" d="M176.7,0v69h-4v-6.6c-1.2,2.1-2.9,3.6-4.9,4.7c-2,1.1-4.3,1.6-6.9,1.6c-2.9,0-5.5-0.7-7.8-2
		c-2.3-1.3-4.2-3.2-5.5-5.5c-1.3-2.4-2-5.1-2-8.1c0-3,0.7-5.7,2-8.1c1.3-2.4,3.1-4.2,5.5-5.5c2.3-1.3,4.9-2,7.8-2
		c2.5,0,4.7,0.5,6.7,1.5c2,1,3.6,2.5,4.9,4.5V0H176.7z M167.1,63.6c1.7-1,3.1-2.4,4.1-4.2c1-1.8,1.5-3.9,1.5-6.2s-0.5-4.4-1.5-6.2
		c-1-1.8-2.4-3.2-4.1-4.2c-1.7-1-3.7-1.5-5.8-1.5c-2.2,0-4.1,0.5-5.9,1.5c-1.7,1-3.1,2.4-4.1,4.2c-1,1.8-1.5,3.9-1.5,6.2
		s0.5,4.4,1.5,6.2c1,1.8,2.4,3.2,4.1,4.2c1.7,1,3.7,1.5,5.9,1.5C163.4,65.1,165.4,64.6,167.1,63.6z"/>
</g>
</svg>
