<?xml version="1.0" encoding="utf-8"?>
<!-- Generator: Adobe Illustrator 22.0.1, SVG Export Plug-In . SVG Version: 6.00 Build 0)  -->
<svg version="1.1" id="Layer_1" xmlns="http://www.w3.org/2000/svg" xmlns:xlink="http://www.w3.org/1999/xlink" x="0px" y="0px"
	 viewBox="0 0 169.1 63.7" style="enable-background:new 0 0 169.1 63.7;" xml:space="preserve">
<style type="text/css">
	.st0{fill:#010101;}
</style>
<g>
	<path class="st0" d="M42.4,5.4v59.3h-4.1V13.5l-16,23.1h-2l-16-23v51H0V5.4h3.6l17.7,25.9L38.8,5.4H42.4z"/>
	<path class="st0" d="M81.5,22.1H55.9c0.2,3.2,1.5,5.8,3.7,7.7c2.2,2,5,2.9,8.4,2.9c1.9,0,3.7-0.3,5.2-1c1.6-0.7,3-1.7,4.1-3
		l2.3,2.7c-1.4,1.6-3.1,2.9-5.1,3.7c-2,0.9-4.3,1.3-6.7,1.3c-3.1,0-5.9-0.7-8.4-2s-4.3-3.2-5.7-5.6c-1.4-2.4-2-5.1-2-8
		c0-3,0.7-5.7,2-8c1.3-2.4,3.1-4.2,5.4-5.5c2.3-1.3,4.8-2,7.7-2c2.8,0,5.4,0.7,7.6,2c2.3,1.3,4,3.2,5.3,5.5s1.9,5,1.9,8.1L81.5,22.1
		z M59.3,11.7c-2,1.9-3.1,4.3-3.4,7.4h21.7c-0.3-3-1.4-5.5-3.4-7.4s-4.5-2.8-7.5-2.8C63.7,8.8,61.3,9.8,59.3,11.7z"/>
	<path class="st0" d="M98.3,6.9c1.9-1,4.3-1.6,7.1-1.6v4l-1-0.1c-3.2,0-5.8,1-7.6,3c-1.8,2-2.7,4.8-2.7,8.3v44.1H90V5.5h4v6
		C95,9.5,96.4,7.9,98.3,6.9z"/>
	<path class="st0" d="M139.3,22.1h-25.7c0.2,3.2,1.5,5.8,3.7,7.7c2.2,2,5,2.9,8.4,2.9c1.9,0,3.7-0.3,5.2-1c1.6-0.7,3-1.7,4.1-3
		l2.3,2.7c-1.4,1.6-3.1,2.9-5.1,3.7c-2,0.9-4.3,1.3-6.7,1.3c-3.1,0-5.9-0.7-8.4-2s-4.3-3.2-5.7-5.6c-1.4-2.4-2-5.1-2-8
		c0-3,0.7-5.7,2-8c1.3-2.4,3.1-4.2,5.4-5.5c2.3-1.3,4.8-2,7.7-2c2.8,0,5.4,0.7,7.6,2c2.3,1.3,4,3.2,5.3,5.5s1.9,5,1.9,8.1
		L139.3,22.1z M117.1,11.7c-2,1.9-3.1,4.3-3.4,7.4h21.7c-0.3-3-1.4-5.5-3.4-7.4s-4.5-2.8-7.5-2.8C121.6,8.8,119.1,9.8,117.1,11.7z"
		/>
	<path class="st0" d="M155.3,22.1c0.5-1.1,1.1-2,1.7-2.8c0.7-0.8,1.6-1.6,2.7-2.6c1.5-1.3,2.6-2.5,3.3-3.5c0.7-1,1.1-2.2,1.1-3.6
		c0-1.9-0.7-3.4-2.2-4.6c-1.5-1.2-3.5-1.7-6.1-1.7c-4.3,0-7.6,1.4-9.9,4.2L143,5.4c3-3.6,7.3-5.4,13-5.4c3.6,0,6.6,0.8,8.7,2.4
		c2.2,1.6,3.3,3.8,3.3,6.6c0,1.4-0.2,2.7-0.7,3.8c-0.5,1.1-1,2-1.7,2.8c-0.7,0.8-1.6,1.6-2.7,2.7c-1.5,1.4-2.6,2.6-3.3,3.6
		c-0.7,1.1-1.1,2.4-1.1,3.9h-3.9C154.6,24.4,154.8,23.2,155.3,22.1z M154.6,36.2c-0.5-0.5-0.8-1.2-0.8-1.9c0-0.8,0.3-1.4,0.8-1.9
		c0.5-0.5,1.2-0.8,1.9-0.8c0.8,0,1.5,0.3,2,0.8c0.5,0.5,0.8,1.1,0.8,1.9c0,0.7-0.3,1.4-0.8,1.9c-0.5,0.5-1.2,0.8-2,0.8
		C155.8,37,155.1,36.8,154.6,36.2z"/>
</g>
</svg>
