<?xml version="1.0" encoding="utf-8"?>
<!-- Generator: Adobe Illustrator 22.0.1, SVG Export Plug-In . SVG Version: 6.00 Build 0)  -->
<svg version="1.1" id="Layer_1" xmlns="http://www.w3.org/2000/svg" xmlns:xlink="http://www.w3.org/1999/xlink" x="0px" y="0px"
	 viewBox="0 0 489 180" style="enable-background:new 0 0 489 180;" xml:space="preserve">
<style type="text/css">
	.st0{fill:#010101;}
</style>
<g>
	<path class="st0" d="M45.3,72c4.9,4.1,7.3,9.7,7.3,16.9c0,7.2-2.4,12.8-7.3,16.8c-4.9,4.1-11.6,6.1-20.1,6.1h-18V178H0V65.9h25.1
		C33.7,65.9,40.4,67.9,45.3,72z M40.2,101.2c3.5-2.9,5.3-7,5.3-12.3c0-5.4-1.8-9.6-5.3-12.5c-3.5-2.9-8.6-4.4-15.3-4.4H7.1v33.6
		h17.8C31.6,105.6,36.7,104.2,40.2,101.2z"/>
	<path class="st0" d="M72,109.7c-3.4-1.9-6-4.5-8-7.9c-1.9-3.4-2.9-7.2-2.9-11.4c0-4.3,1-8.1,2.9-11.4c1.9-3.4,4.6-6,8-7.9
		c3.4-1.9,7.2-2.8,11.4-2.8c4.2,0,8,0.9,11.4,2.8c3.4,1.9,6,4.5,7.9,7.9c1.9,3.4,2.9,7.2,2.9,11.4c0,4.3-1,8.1-2.9,11.4
		c-1.9,3.4-4.5,6-7.9,7.9c-3.4,1.9-7.2,2.9-11.4,2.9C79.1,112.6,75.3,111.6,72,109.7z M91.7,105.2c2.5-1.4,4.4-3.4,5.8-6
		c1.4-2.6,2.1-5.6,2.1-8.9c0-3.3-0.7-6.3-2.1-8.9c-1.4-2.6-3.3-4.6-5.8-6c-2.5-1.4-5.2-2.1-8.3-2.1c-3.1,0-5.9,0.7-8.3,2.1
		c-2.5,1.4-4.4,3.4-5.8,6c-1.4,2.6-2.1,5.6-2.1,8.9c0,3.3,0.7,6.3,2.1,8.9c1.4,2.6,3.3,4.6,5.8,6c2.5,1.4,5.2,2.1,8.3,2.1
		C86.4,107.4,89.2,106.7,91.7,105.2z"/>
	<path class="st0" d="M129,68.3c3.2-1.7,7.1-2.6,11.8-2.6v6.6l-1.6-0.1c-5.3,0-9.5,1.6-12.5,4.9c-3,3.3-4.5,7.8-4.5,13.7V178h-6.8
		V66.1h6.5V76C123.5,72.6,125.9,70.1,129,68.3z"/>
	<path class="st0" d="M175,72h-23.6v-6.1h54.3V72h-23.6v106H175V72z"/>
	<path class="st0" d="M220.8,109.5c-3.6-2-6.3-4.8-8.4-8.3c-2-3.6-3.1-7.6-3.1-12.1c0-4.5,1-8.5,3.1-12.1c2-3.6,4.8-6.3,8.4-8.3
		c3.6-2,7.5-3,12-3c4.4,0,8.4,1,12,3c3.6,2,6.3,4.7,8.3,8.3c2,3.6,3,7.6,3,12.1c0,4.5-1,8.5-3,12.1c-2,3.6-4.8,6.3-8.3,8.3
		c-3.6,2-7.5,3-12,3C228.3,112.5,224.3,111.5,220.8,109.5z M241.5,104.7c2.6-1.5,4.6-3.6,6.1-6.3c1.5-2.7,2.2-5.9,2.2-9.3
		c0-3.5-0.7-6.6-2.2-9.3c-1.5-2.7-3.5-4.8-6.1-6.3c-2.6-1.5-5.5-2.2-8.8-2.2c-3.3,0-6.2,0.7-8.8,2.2c-2.6,1.5-4.6,3.6-6.1,6.3
		c-1.5,2.7-2.2,5.9-2.2,9.3c0,3.5,0.7,6.6,2.2,9.3c1.5,2.7,3.5,4.8,6.1,6.3c2.6,1.5,5.5,2.2,8.8,2.2
		C236,107,238.9,106.2,241.5,104.7z"/>
	<path class="st0" d="M279,72v26.4h34.7v6.1H279V178h-7.1V65.9h46V72H279z"/>
	<path class="st0" d="M341.3,109.5c-3.6-2-6.3-4.8-8.4-8.3c-2-3.6-3.1-7.6-3.1-12.1c0-4.5,1-8.5,3.1-12.1c2-3.6,4.8-6.3,8.4-8.3
		c3.6-2,7.5-3,12-3c4.4,0,8.4,1,12,3c3.6,2,6.3,4.7,8.3,8.3c2,3.6,3,7.6,3,12.1c0,4.5-1,8.5-3,12.1c-2,3.6-4.8,6.3-8.3,8.3
		c-3.6,2-7.5,3-12,3C348.8,112.5,344.8,111.5,341.3,109.5z M362,104.7c2.6-1.5,4.6-3.6,6.1-6.3c1.5-2.7,2.2-5.9,2.2-9.3
		c0-3.5-0.7-6.6-2.2-9.3c-1.5-2.7-3.5-4.8-6.1-6.3c-2.6-1.5-5.5-2.2-8.8-2.2c-3.3,0-6.2,0.7-8.8,2.2c-2.6,1.5-4.6,3.6-6.1,6.3
		c-1.5,2.7-2.2,5.9-2.2,9.3c0,3.5,0.7,6.6,2.2,9.3c1.5,2.7,3.5,4.8,6.1,6.3c2.6,1.5,5.5,2.2,8.8,2.2
		C356.5,107,359.4,106.2,362,104.7z"/>
	<path class="st0" d="M389.6,0h6.8v112.5h-6.8V0z"/>
	<path class="st0" d="M415.3,75.6c-1-1-1.4-2.1-1.4-3.5c0-1.3,0.5-2.4,1.4-3.4c1-1,2.1-1.4,3.5-1.4c1.4,0,2.6,0.5,3.6,1.4
		c1,0.9,1.4,2,1.4,3.3c0,1.4-0.5,2.6-1.4,3.6c-1,1-2.1,1.4-3.6,1.4C417.4,77,416.3,76.6,415.3,75.6z M415.4,88.1h6.8V178h-6.8V88.1z
		"/>
	<path class="st0" d="M447.6,109.5c-3.6-2-6.3-4.8-8.4-8.3c-2-3.6-3.1-7.6-3.1-12.1c0-4.5,1-8.5,3.1-12.1c2-3.6,4.8-6.3,8.4-8.3
		c3.6-2,7.5-3,12-3c4.4,0,8.4,1,12,3c3.6,2,6.3,4.7,8.3,8.3c2,3.6,3,7.6,3,12.1c0,4.5-1,8.5-3,12.1c-2,3.6-4.8,6.3-8.3,8.3
		c-3.6,2-7.5,3-12,3C455.1,112.5,451.1,111.5,447.6,109.5z M468.3,104.7c2.6-1.5,4.6-3.6,6.1-6.3c1.5-2.7,2.2-5.9,2.2-9.3
		c0-3.5-0.7-6.6-2.2-9.3c-1.5-2.7-3.5-4.8-6.1-6.3c-2.6-1.5-5.5-2.2-8.8-2.2c-3.3,0-6.2,0.7-8.8,2.2c-2.6,1.5-4.6,3.6-6.1,6.3
		c-1.5,2.7-2.2,5.9-2.2,9.3c0,3.5,0.7,6.6,2.2,9.3c1.5,2.7,3.5,4.8,6.1,6.3c2.6,1.5,5.5,2.2,8.8,2.2
		C462.8,107,465.7,106.2,468.3,104.7z"/>
</g>
</svg>
