<?xml version="1.0" encoding="utf-8"?>
<!-- Generator: Adobe Illustrator 22.0.1, SVG Export Plug-In . SVG Version: 6.00 Build 0)  -->
<svg version="1.1" id="Layer_1" xmlns="http://www.w3.org/2000/svg" xmlns:xlink="http://www.w3.org/1999/xlink" x="0px" y="0px"
	 viewBox="0 0 333.9 95.3" style="enable-background:new 0 0 333.9 95.3;" xml:space="preserve">
<style type="text/css">
	.st0{fill:#010101;}
</style>
<g>
	<path class="st0" d="M11.4,53.1l-7.2,6.6V69H0V0h4.1v54.6l18.3-16.7h5.1L14.5,50.4L28.8,69h-5.1L11.4,53.1z"/>
	<path class="st0" d="M58.4,40.6c2.1,2,3.2,5,3.2,8.9V69h-4v-5.3c-0.9,1.6-2.3,2.8-4.1,3.7c-1.8,0.9-4,1.3-6.4,1.3
		c-3.4,0-6.1-0.8-8.2-2.4s-3-3.8-3-6.5c0-2.6,0.9-4.7,2.8-6.3c1.9-1.6,4.9-2.4,9-2.4h9.7v-1.9c0-2.6-0.7-4.7-2.2-6
		c-1.5-1.4-3.6-2.1-6.5-2.1c-1.9,0-3.8,0.3-5.6,1c-1.8,0.6-3.3,1.5-4.6,2.7l-1.9-3.1c1.6-1.3,3.4-2.3,5.6-3.1
		c2.2-0.7,4.5-1.1,6.9-1.1C53.2,37.6,56.3,38.6,58.4,40.6z M53.7,63.9c1.7-1.1,2.9-2.6,3.7-4.6v-5h-9.6c-5.2,0-7.9,1.8-7.9,5.5
		c0,1.8,0.7,3.2,2,4.2c1.4,1,3.3,1.5,5.7,1.5C50.1,65.5,52.1,65,53.7,63.9z"/>
	<path class="st0" d="M76.2,39.2c1.9-1,4.3-1.6,7.1-1.6v4l-1-0.1c-3.2,0-5.8,1-7.6,3c-1.8,2-2.7,4.8-2.7,8.3V97h-4.1V37.8h4v6
		C72.8,41.8,74.2,40.2,76.2,39.2z"/>
	<path class="st0" d="M102.1,39.2c1.9-1,4.3-1.6,7.1-1.6v4l-1-0.1c-3.2,0-5.8,1-7.6,3c-1.8,2-2.7,4.8-2.7,8.3V97h-4.1V37.8h4v6
		C98.7,41.8,100.1,40.2,102.1,39.2z"/>
	<path class="st0" d="M138.6,64.4V97h-4.3V64.4L118,38h4.6l14,22.6l14-22.6h4.3L138.6,64.4z"/>
	<path class="st0" d="M193.4,41.4c3,2.5,4.4,5.9,4.4,10.3c0,4.4-1.5,7.8-4.4,10.2c-3,2.5-7,3.7-12.2,3.7h-11V97h-4.3V37.7h15.3
		C186.4,37.7,190.5,38.9,193.4,41.4z M190.3,59.2c2.1-1.8,3.2-4.3,3.2-7.5c0-3.3-1.1-5.8-3.2-7.6c-2.1-1.8-5.2-2.7-9.3-2.7h-10.8
		v20.4h10.8C185.1,61.8,188.2,60.9,190.3,59.2z"/>
	<path class="st0" d="M226,40.6c2.1,2,3.2,5,3.2,8.9v19h-4v-4.8c-0.9,1.6-2.3,2.8-4.1,3.7c-1.8,0.9-4,1.3-6.4,1.3
		c-3.4,0-6.1-0.8-8.2-2.4c-2-1.6-3-3.8-3-6.5c0-2.6,0.9-4.7,2.8-6.3c1.9-1.6,4.9-2.4,9-2.4h9.7v-1.9c0-2.6-0.7-4.7-2.2-6
		c-1.5-1.4-3.6-2.1-6.5-2.1c-1.9,0-3.8,0.3-5.6,1c-1.8,0.6-3.3,1.5-4.6,2.7l-1.9-3.1c1.6-1.3,3.4-2.3,5.6-3.1
		c2.2-0.7,4.5-1.1,6.9-1.1C220.8,37.6,223.8,38.6,226,40.6z M221.3,63.9c1.7-1.1,2.9-2.6,3.7-4.6v-5h-9.6c-5.2,0-7.9,1.8-7.9,5.5
		c0,1.8,0.7,3.2,2,4.2c1.4,1,3.3,1.5,5.7,1.5C217.6,65.5,219.6,65,221.3,63.9z"/>
	<path class="st0" d="M251.8,53.1l-7.2,6.6V69h-4.1V0h4.1v54.6l18.3-16.7h5.1l-13.1,12.5L269.2,69h-5.1L251.8,53.1z"/>
	<path class="st0" d="M286.8,53.1l-7.2,6.6V69h-4.1V0h4.1v54.6l18.3-16.7h5.1l-13.1,12.5L304.3,69h-5.1L286.8,53.1z"/>
	<path class="st0" d="M336,54.4h-25.7c0.2,3.2,1.5,5.8,3.7,7.7c2.2,2,5,2.9,8.4,2.9c1.9,0,3.7-0.3,5.2-1c1.6-0.7,3-1.7,4.1-3
		l2.3,2.7c-1.4,1.6-3.1,2.9-5.1,3.7c-2,0.9-4.3,1.3-6.7,1.3c-3.1,0-5.9-0.7-8.4-2s-4.3-3.2-5.7-5.6c-1.4-2.4-2-5.1-2-8
		c0-3,0.7-5.7,2-8c1.3-2.4,3.1-4.2,5.4-5.5c2.3-1.3,4.8-2,7.7-2c2.8,0,5.4,0.7,7.6,2c2.3,1.3,4,3.2,5.3,5.5c1.3,2.4,1.9,5,1.9,8.1
		L336,54.4z M313.7,44c-2,1.9-3.1,4.3-3.4,7.4h21.7c-0.3-3-1.4-5.5-3.4-7.4c-2-1.9-4.5-2.8-7.5-2.8C318.2,41.2,315.7,42.1,313.7,44z
		"/>
</g>
</svg>
