<?xml version="1.0" encoding="utf-8"?>
<!-- Generator: Adobe Illustrator 22.0.1, SVG Export Plug-In . SVG Version: 6.00 Build 0)  -->
<svg version="1.1" id="Layer_1" xmlns="http://www.w3.org/2000/svg" xmlns:xlink="http://www.w3.org/1999/xlink" x="0px" y="0px"
	 viewBox="0 0 293.5 95.3" style="enable-background:new 0 0 293.5 95.3;" xml:space="preserve">
<style type="text/css">
	.st0{fill:#010101;}
</style>
<g>
	<path class="st0" d="M42.4,38v59h-4.1V45.9L22.2,69h-2l-16-23v51H0V38h3.6l17.7,25.6L38.8,38H42.4z"/>
	<path class="st0" d="M81.1,54.6H55.8c0.2,3.1,1.4,5.7,3.6,7.6c2.2,1.9,4.9,2.9,8.3,2.9c1.9,0,3.6-0.3,5.2-1c1.6-0.7,2.9-1.7,4.1-3
		l2.3,2.6c-1.3,1.6-3,2.8-5,3.7c-2,0.8-4.2,1.3-6.6,1.3c-3.1,0-5.9-0.7-8.3-2c-2.4-1.3-4.3-3.2-5.6-5.5c-1.3-2.3-2-5-2-7.9
		c0-3,0.6-5.6,1.9-7.9c1.3-2.3,3.1-4.2,5.3-5.5c2.2-1.3,4.8-2,7.6-2c2.8,0,5.3,0.7,7.5,2c2.2,1.3,4,3.1,5.2,5.4c1.3,2.3,1.9,5,1.9,8
		L81.1,54.6z M59.2,44.3c-2,1.9-3.1,4.3-3.4,7.3h21.5c-0.3-3-1.4-5.4-3.4-7.3c-2-1.9-4.4-2.8-7.4-2.8C63.6,41.5,61.1,42.4,59.2,44.3
		z"/>
	<path class="st0" d="M115.3,41.4c2.3,2.3,3.5,5.6,3.5,10V97h-4.2V51.8c0-3.2-0.8-5.7-2.4-7.4c-1.6-1.7-3.9-2.6-7-2.6
		c-3.4,0-6,1-8,3c-2,2-2.9,4.8-2.9,8.3V97H90V38h4v6c1.1-1.9,2.7-3.4,4.8-4.4c2-1,4.4-1.6,7.1-1.6C109.9,38,113,39.1,115.3,41.4z"/>
	<path class="st0" d="M157.2,38v31h-4v-5.9c-1.1,1.9-2.6,3.3-4.5,4.3c-1.9,1-4.1,1.5-6.5,1.5c-4,0-7.2-1.1-9.5-3.4
		c-2.3-2.2-3.5-5.5-3.5-9.8V38h4.1v17.4c0,3.2,0.8,5.7,2.4,7.4c1.6,1.7,3.9,2.5,6.8,2.5c3.2,0,5.8-1,7.6-2.9c1.9-2,2.8-4.7,2.8-8.2
		V38H157.2z"/>
	<path class="st0" d="M180.3,53.3l-7.3,6.7v9h-4.2V0h4.2v54.8L191.5,38h5.2l-13.3,12.5L197.9,69h-5.1L180.3,53.3z"/>
	<path class="st0" d="M207,67c-2.4-1.3-4.2-3.2-5.6-5.5c-1.4-2.4-2-5-2-8c0-3,0.7-5.6,2-8c1.4-2.4,3.2-4.2,5.6-5.5
		c2.4-1.3,5-2,7.9-2c2.9,0,5.6,0.7,7.9,2c2.4,1.3,4.2,3.1,5.5,5.5c1.3,2.4,2,5,2,8c0,3-0.7,5.6-2,8c-1.3,2.4-3.2,4.2-5.5,5.5
		c-2.4,1.3-5,2-7.9,2C212,69,209.4,68.3,207,67z M220.8,63.9c1.7-1,3.1-2.4,4-4.2c1-1.8,1.4-3.9,1.4-6.2c0-2.3-0.5-4.4-1.4-6.2
		c-1-1.8-2.3-3.2-4-4.2c-1.7-1-3.7-1.5-5.8-1.5c-2.2,0-4.1,0.5-5.8,1.5c-1.7,1-3.1,2.4-4.1,4.2c-1,1.8-1.5,3.9-1.5,6.2
		c0,2.3,0.5,4.4,1.5,6.2c1,1.8,2.3,3.2,4.1,4.2c1.7,1,3.7,1.5,5.8,1.5C217.1,65.3,219.1,64.9,220.8,63.9z"/>
	<path class="st0" d="M247.6,39.6c2-1.1,4.4-1.6,7.3-1.6v4.1l-1-0.1c-3.3,0-5.9,1-7.7,3c-1.9,2-2.8,4.9-2.8,8.5V97h-4.2V38h4v6.4
		C244.1,42.3,245.6,40.7,247.6,39.6z"/>
	<path class="st0" d="M273.9,41.9h-14V38h32.1v3.9h-14V97h-4.2V41.9z"/>
</g>
</svg>
